<?xml version="1.0" encoding="UTF-8"?>
<svg xmlns="http://www.w3.org/2000/svg" width="1200" height="675" viewBox="0 0 1200 675" role="img" aria-labelledby="title-agilite_au_dela_des_methodes desc-agilite_au_dela_des_methodes">
<title id="title-agilite_au_dela_des_methodes">Agilité : au-delà des méthodes, l’état d’esprit</title>
<desc id="desc-agilite_au_dela_des_methodes">Visuel editorial pour Organisation &amp; Agilité.</desc>
<defs>
  <linearGradient id="bg-agilite_au_dela_des_methodes" x1="0" y1="0" x2="1" y2="1">
    <stop offset="0" stop-color="#f6fbf7"/>
    <stop offset=".58" stop-color="#fffaf4"/>
    <stop offset="1" stop-color="#d7efdc"/>
  </linearGradient>
  <filter id="shadow-agilite_au_dela_des_methodes" x="-20%" y="-20%" width="140%" height="140%">
    <feDropShadow dx="0" dy="24" stdDeviation="28" flood-color="#2c2014" flood-opacity=".13"/>
  </filter>
</defs>
<rect width="1200" height="675" fill="url(#bg-agilite_au_dela_des_methodes)"/>

  <circle cx="1060" cy="120" r="148" fill="#2f8f55" opacity=".10"/>
  <circle cx="940" cy="570" r="190" fill="#d7efdc" opacity=".42"/>
  <circle cx="210" cy="570" r="150" fill="#2f8f55" opacity=".07"/>
  <path d="M45 515 C225 430 320 640 520 545 C705 455 805 490 1155 350" fill="none" stroke="#2f8f55" stroke-width="2" opacity=".18"/>
  <path d="M70 165 C230 95 320 285 480 210 C650 132 825 152 1115 88" fill="none" stroke="#d7efdc" stroke-width="2" opacity=".38"/>

<rect x="38" y="38" width="1124" height="599" rx="46" fill="#ffffff" opacity=".64" filter="url(#shadow-agilite_au_dela_des_methodes)"/>
<rect x="82" y="86" width="384" height="42" rx="21" fill="#2f8f55" opacity=".95"/>
<text x="110" y="114" fill="#fffaf4" font-family="Inter, Arial, sans-serif" font-size="16" font-weight="900" letter-spacing="1.6">ORGANISATION &amp; AGILITÉ</text>
<text x="82" y="177" fill="#2f8f55" font-family="Inter, Arial, sans-serif" font-size="18" font-weight="900" letter-spacing="2">6 MIN</text>
<text x="82" y="255" fill="#142219" font-family="Playfair Display, Georgia, serif" font-size="48" font-weight="800">Agilité : au-delà des</text>
<text x="82" y="308" fill="#142219" font-family="Playfair Display, Georgia, serif" font-size="48" font-weight="800">méthodes, l’état d’esprit</text>
<text x="86" y="505" fill="#51473e" font-family="Inter, Arial, sans-serif" font-size="22" font-weight="600">Pourquoi l’agilité est d’abord une culture et</text>
<text x="86" y="534" fill="#51473e" font-family="Inter, Arial, sans-serif" font-size="22" font-weight="600">comment la faire vivre réellement.</text>
<text x="86" y="592" fill="#142219" opacity=".72" font-family="Inter, Arial, sans-serif" font-size="15" font-weight="800">Cédrick Benittah · Transformation, IA &amp; performance</text>
<g>

  <circle cx="900" cy="335" r="150" fill="#ffffff" opacity=".72"/>
  <path d="M820 350 C760 255 855 205 902 270 C950 205 1045 255 985 350 C952 404 908 442 902 448 C896 442 852 404 820 350 Z" fill="#ff5a14" opacity=".65"/>
  <path d="M735 505 C820 470 885 525 970 485 C1015 463 1055 448 1100 455" fill="none" stroke="#2f8f55" stroke-width="9" stroke-linecap="round"/>

</g>
</svg>
