<?xml version="1.0" encoding="UTF-8"?>
<svg xmlns="http://www.w3.org/2000/svg" width="1200" height="675" viewBox="0 0 1200 675" role="img" aria-labelledby="title-comment_echouer_conduite_changement desc-comment_echouer_conduite_changement">
<title id="title-comment_echouer_conduite_changement">Comment échouer dans la conduite du changement</title>
<desc id="desc-comment_echouer_conduite_changement">Visuel editorial pour Transformation.</desc>
<defs>
  <linearGradient id="bg-comment_echouer_conduite_changement" x1="0" y1="0" x2="1" y2="1">
    <stop offset="0" stop-color="#fff6ed"/>
    <stop offset=".58" stop-color="#fffaf4"/>
    <stop offset="1" stop-color="#f6dac1"/>
  </linearGradient>
  <filter id="shadow-comment_echouer_conduite_changement" x="-20%" y="-20%" width="140%" height="140%">
    <feDropShadow dx="0" dy="24" stdDeviation="28" flood-color="#2c2014" flood-opacity=".13"/>
  </filter>
</defs>
<rect width="1200" height="675" fill="url(#bg-comment_echouer_conduite_changement)"/>

  <circle cx="1060" cy="120" r="148" fill="#ff5a14" opacity=".10"/>
  <circle cx="940" cy="570" r="190" fill="#f6dac1" opacity=".42"/>
  <circle cx="210" cy="570" r="150" fill="#ff5a14" opacity=".07"/>
  <path d="M45 515 C225 430 320 640 520 545 C705 455 805 490 1155 350" fill="none" stroke="#ff5a14" stroke-width="2" opacity=".18"/>
  <path d="M70 165 C230 95 320 285 480 210 C650 132 825 152 1115 88" fill="none" stroke="#f6dac1" stroke-width="2" opacity=".38"/>

<rect x="38" y="38" width="1124" height="599" rx="46" fill="#ffffff" opacity=".64" filter="url(#shadow-comment_echouer_conduite_changement)"/>
<rect x="82" y="86" width="272" height="42" rx="21" fill="#ff5a14" opacity=".95"/>
<text x="110" y="114" fill="#fffaf4" font-family="Inter, Arial, sans-serif" font-size="16" font-weight="900" letter-spacing="1.6">TRANSFORMATION</text>
<text x="82" y="177" fill="#ff5a14" font-family="Inter, Arial, sans-serif" font-size="18" font-weight="900" letter-spacing="2">6 MIN</text>
<text x="82" y="255" fill="#221815" font-family="Playfair Display, Georgia, serif" font-size="48" font-weight="800">Comment échouer dans la</text>
<text x="82" y="308" fill="#221815" font-family="Playfair Display, Georgia, serif" font-size="48" font-weight="800">conduite du changement</text>
<text x="86" y="505" fill="#51473e" font-family="Inter, Arial, sans-serif" font-size="22" font-weight="600">Reconnaître les erreurs qui compromettent une</text>
<text x="86" y="534" fill="#51473e" font-family="Inter, Arial, sans-serif" font-size="22" font-weight="600">transformation permet de mieux la sécuriser.</text>
<text x="86" y="592" fill="#221815" opacity=".72" font-family="Inter, Arial, sans-serif" font-size="15" font-weight="800">Cédrick Benittah · Transformation, IA &amp; performance</text>
<g>

  <path d="M900 165 L1115 535 H685 Z" fill="#ffffff" opacity=".72" stroke="#ff5a14" stroke-width="8" stroke-linejoin="round"/>
  <path d="M900 280 V395" stroke="#ff5a14" stroke-width="18" stroke-linecap="round"/>
  <circle cx="900" cy="452" r="16" fill="#ff5a14"/>
  <path d="M710 540 C820 455 890 570 1035 460" fill="none" stroke="#c99a5b" stroke-width="8" stroke-linecap="round" opacity=".72"/>

</g>
</svg>
