<?xml version="1.0" encoding="UTF-8"?>
<svg xmlns="http://www.w3.org/2000/svg" width="1200" height="675" viewBox="0 0 1200 675" role="img" aria-labelledby="title-conduire_changement_dans_duree desc-conduire_changement_dans_duree">
<title id="title-conduire_changement_dans_duree">Conduire le changement dans la durée</title>
<desc id="desc-conduire_changement_dans_duree">Visuel editorial pour Transformation.</desc>
<defs>
  <linearGradient id="bg-conduire_changement_dans_duree" x1="0" y1="0" x2="1" y2="1">
    <stop offset="0" stop-color="#fff6ed"/>
    <stop offset=".58" stop-color="#fffaf4"/>
    <stop offset="1" stop-color="#f6dac1"/>
  </linearGradient>
  <filter id="shadow-conduire_changement_dans_duree" x="-20%" y="-20%" width="140%" height="140%">
    <feDropShadow dx="0" dy="24" stdDeviation="28" flood-color="#2c2014" flood-opacity=".13"/>
  </filter>
</defs>
<rect width="1200" height="675" fill="url(#bg-conduire_changement_dans_duree)"/>

  <circle cx="1060" cy="120" r="148" fill="#ff5a14" opacity=".10"/>
  <circle cx="940" cy="570" r="190" fill="#f6dac1" opacity=".42"/>
  <circle cx="210" cy="570" r="150" fill="#ff5a14" opacity=".07"/>
  <path d="M45 515 C225 430 320 640 520 545 C705 455 805 490 1155 350" fill="none" stroke="#ff5a14" stroke-width="2" opacity=".18"/>
  <path d="M70 165 C230 95 320 285 480 210 C650 132 825 152 1115 88" fill="none" stroke="#f6dac1" stroke-width="2" opacity=".38"/>

<rect x="38" y="38" width="1124" height="599" rx="46" fill="#ffffff" opacity=".64" filter="url(#shadow-conduire_changement_dans_duree)"/>
<rect x="82" y="86" width="272" height="42" rx="21" fill="#ff5a14" opacity=".95"/>
<text x="110" y="114" fill="#fffaf4" font-family="Inter, Arial, sans-serif" font-size="16" font-weight="900" letter-spacing="1.6">TRANSFORMATION</text>
<text x="82" y="177" fill="#ff5a14" font-family="Inter, Arial, sans-serif" font-size="18" font-weight="900" letter-spacing="2">7 MIN</text>
<text x="82" y="255" fill="#221815" font-family="Playfair Display, Georgia, serif" font-size="48" font-weight="800">Conduire le changement</text>
<text x="82" y="308" fill="#221815" font-family="Playfair Display, Georgia, serif" font-size="48" font-weight="800">dans la durée</text>
<text x="86" y="505" fill="#51473e" font-family="Inter, Arial, sans-serif" font-size="22" font-weight="600">Les clés pour embarquer vos équipes et ancrer</text>
<text x="86" y="534" fill="#51473e" font-family="Inter, Arial, sans-serif" font-size="22" font-weight="600">la transformation dans le quotidien.</text>
<text x="86" y="592" fill="#221815" opacity=".72" font-family="Inter, Arial, sans-serif" font-size="15" font-weight="800">Cédrick Benittah · Transformation, IA &amp; performance</text>
<g>
<path d="M720 470 C790 365 840 345 910 405 S1012 275 1085 300" fill="none" stroke="#ff5a14" stroke-width="12" stroke-linecap="round"/>
<circle cx="720" cy="470" r="28" fill="#fffaf4" stroke="#ff5a14" stroke-width="7"/>
<text x="720" y="478" text-anchor="middle" fill="#ff5a14" font-family="Inter, Arial, sans-serif" font-size="24" font-weight="900">1</text>
<circle cx="810" cy="360" r="28" fill="#fffaf4" stroke="#ff5a14" stroke-width="7"/>
<text x="810" y="368" text-anchor="middle" fill="#ff5a14" font-family="Inter, Arial, sans-serif" font-size="24" font-weight="900">2</text>
<circle cx="910" cy="405" r="28" fill="#fffaf4" stroke="#ff5a14" stroke-width="7"/>
<text x="910" y="413" text-anchor="middle" fill="#ff5a14" font-family="Inter, Arial, sans-serif" font-size="24" font-weight="900">3</text>
<circle cx="1000" cy="270" r="28" fill="#fffaf4" stroke="#ff5a14" stroke-width="7"/>
<text x="1000" y="278" text-anchor="middle" fill="#ff5a14" font-family="Inter, Arial, sans-serif" font-size="24" font-weight="900">4</text>
<circle cx="1085" cy="300" r="28" fill="#fffaf4" stroke="#ff5a14" stroke-width="7"/>
<text x="1085" y="308" text-anchor="middle" fill="#ff5a14" font-family="Inter, Arial, sans-serif" font-size="24" font-weight="900">5</text>
<rect x="765" y="145" width="250" height="82" rx="24" fill="#c99a5b" opacity=".55"/>
</g>
</svg>
