<?xml version="1.0" encoding="UTF-8"?>
<svg xmlns="http://www.w3.org/2000/svg" width="1200" height="675" viewBox="0 0 1200 675" role="img" aria-labelledby="title-exemple_epic_user_stories_taches desc-exemple_epic_user_stories_taches">
<title id="title-exemple_epic_user_stories_taches">Exemple Epic, User Stories et Tâches</title>
<desc id="desc-exemple_epic_user_stories_taches">Visuel editorial pour Agilité.</desc>
<defs>
  <linearGradient id="bg-exemple_epic_user_stories_taches" x1="0" y1="0" x2="1" y2="1">
    <stop offset="0" stop-color="#f5fbf8"/>
    <stop offset=".58" stop-color="#fffaf4"/>
    <stop offset="1" stop-color="#d5efe6"/>
  </linearGradient>
  <filter id="shadow-exemple_epic_user_stories_taches" x="-20%" y="-20%" width="140%" height="140%">
    <feDropShadow dx="0" dy="24" stdDeviation="28" flood-color="#2c2014" flood-opacity=".13"/>
  </filter>
</defs>
<rect width="1200" height="675" fill="url(#bg-exemple_epic_user_stories_taches)"/>

  <circle cx="1060" cy="120" r="148" fill="#178a67" opacity=".10"/>
  <circle cx="940" cy="570" r="190" fill="#d5efe6" opacity=".42"/>
  <circle cx="210" cy="570" r="150" fill="#178a67" opacity=".07"/>
  <path d="M45 515 C225 430 320 640 520 545 C705 455 805 490 1155 350" fill="none" stroke="#178a67" stroke-width="2" opacity=".18"/>
  <path d="M70 165 C230 95 320 285 480 210 C650 132 825 152 1115 88" fill="none" stroke="#d5efe6" stroke-width="2" opacity=".38"/>

<rect x="38" y="38" width="1124" height="599" rx="46" fill="#ffffff" opacity=".64" filter="url(#shadow-exemple_epic_user_stories_taches)"/>
<rect x="82" y="86" width="220" height="42" rx="21" fill="#178a67" opacity=".95"/>
<text x="110" y="114" fill="#fffaf4" font-family="Inter, Arial, sans-serif" font-size="16" font-weight="900" letter-spacing="1.6">AGILITÉ</text>
<text x="82" y="177" fill="#178a67" font-family="Inter, Arial, sans-serif" font-size="18" font-weight="900" letter-spacing="2">6 MIN</text>
<text x="82" y="255" fill="#14221c" font-family="Playfair Display, Georgia, serif" font-size="48" font-weight="800">Exemple Epic, User Stories</text>
<text x="82" y="308" fill="#14221c" font-family="Playfair Display, Georgia, serif" font-size="48" font-weight="800">et Tâches</text>
<text x="86" y="505" fill="#51473e" font-family="Inter, Arial, sans-serif" font-size="22" font-weight="600">Un exemple concret de découpage entre épics,</text>
<text x="86" y="534" fill="#51473e" font-family="Inter, Arial, sans-serif" font-size="22" font-weight="600">user stories, story points et tâches.</text>
<text x="86" y="592" fill="#14221c" opacity=".72" font-family="Inter, Arial, sans-serif" font-size="15" font-weight="800">Cédrick Benittah · Transformation, IA &amp; performance</text>
<g>
<line x1="985" y1="240" x2="985" y2="310" stroke="#178a67" stroke-width="7" opacity=".65"/>
<line x1="825" y1="390" x2="760" y2="455" stroke="#ff5a14" stroke-width="6" opacity=".65"/>
<line x1="825" y1="390" x2="895" y2="455" stroke="#ff5a14" stroke-width="6" opacity=".65"/>
<line x1="995" y1="390" x2="1030" y2="455" stroke="#ff5a14" stroke-width="6" opacity=".65"/>
<rect x="905" y="160" width="160" height="70" rx="18" fill="#178a67" opacity="0.88"/>
<rect x="760" y="310" width="130" height="70" rx="18" fill="#ffffff" opacity="0.78"/>
<rect x="930" y="310" width="130" height="70" rx="18" fill="#ffffff" opacity="0.78"/>
<rect x="705" y="455" width="110" height="70" rx="18" fill="#ffffff" opacity="0.78"/>
<rect x="840" y="455" width="110" height="70" rx="18" fill="#ffffff" opacity="0.78"/>
<rect x="975" y="455" width="110" height="70" rx="18" fill="#ffffff" opacity="0.78"/>
</g>
</svg>
