<?xml version="1.0" encoding="UTF-8"?>
<svg xmlns="http://www.w3.org/2000/svg" width="1200" height="675" viewBox="0 0 1200 675" role="img" aria-labelledby="title-ia_act_organisations_anticiper desc-ia_act_organisations_anticiper">
<title id="title-ia_act_organisations_anticiper">IA Act : ce que les organisations doivent anticiper</title>
<desc id="desc-ia_act_organisations_anticiper">Visuel editorial pour IA &amp; Data.</desc>
<defs>
  <linearGradient id="bg-ia_act_organisations_anticiper" x1="0" y1="0" x2="1" y2="1">
    <stop offset="0" stop-color="#f1fbff"/>
    <stop offset=".58" stop-color="#fffaf4"/>
    <stop offset="1" stop-color="#caeef5"/>
  </linearGradient>
  <filter id="shadow-ia_act_organisations_anticiper" x="-20%" y="-20%" width="140%" height="140%">
    <feDropShadow dx="0" dy="24" stdDeviation="28" flood-color="#2c2014" flood-opacity=".13"/>
  </filter>
</defs>
<rect width="1200" height="675" fill="url(#bg-ia_act_organisations_anticiper)"/>

  <circle cx="1060" cy="120" r="148" fill="#0097a7" opacity=".10"/>
  <circle cx="940" cy="570" r="190" fill="#caeef5" opacity=".42"/>
  <circle cx="210" cy="570" r="150" fill="#0097a7" opacity=".07"/>
  <path d="M45 515 C225 430 320 640 520 545 C705 455 805 490 1155 350" fill="none" stroke="#0097a7" stroke-width="2" opacity=".18"/>
  <path d="M70 165 C230 95 320 285 480 210 C650 132 825 152 1115 88" fill="none" stroke="#caeef5" stroke-width="2" opacity=".38"/>

<rect x="38" y="38" width="1124" height="599" rx="46" fill="#ffffff" opacity=".64" filter="url(#shadow-ia_act_organisations_anticiper)"/>
<rect x="82" y="86" width="220" height="42" rx="21" fill="#0097a7" opacity=".95"/>
<text x="110" y="114" fill="#fffaf4" font-family="Inter, Arial, sans-serif" font-size="16" font-weight="900" letter-spacing="1.6">IA &amp; DATA</text>
<text x="82" y="177" fill="#0097a7" font-family="Inter, Arial, sans-serif" font-size="18" font-weight="900" letter-spacing="2">6 MIN</text>
<text x="82" y="255" fill="#10202b" font-family="Playfair Display, Georgia, serif" font-size="48" font-weight="800">IA Act : ce que les</text>
<text x="82" y="308" fill="#10202b" font-family="Playfair Display, Georgia, serif" font-size="48" font-weight="800">organisations doivent</text>
<text x="82" y="362" fill="#10202b" font-family="Playfair Display, Georgia, serif" font-size="48" font-weight="800">anticiper</text>
<text x="86" y="505" fill="#51473e" font-family="Inter, Arial, sans-serif" font-size="22" font-weight="600">Sensibiliser les équipes, cadrer les usages et</text>
<text x="86" y="534" fill="#51473e" font-family="Inter, Arial, sans-serif" font-size="22" font-weight="600">instaurer une gouvernance responsable.</text>
<text x="86" y="592" fill="#10202b" opacity=".72" font-family="Inter, Arial, sans-serif" font-size="15" font-weight="800">Cédrick Benittah · Transformation, IA &amp; performance</text>
<g>

  <path d="M910 170 L1050 225 L1024 405 C1006 500 960 548 910 575 C860 548 814 500 796 405 L770 225 Z" fill="#ffffff" opacity=".72" stroke="#0097a7" stroke-width="6"/>
  <line x1="910" y1="335" x2="1060.0" y2="335.0" stroke="#ff5a14" stroke-width="3" opacity=".42"/><circle cx="1060.0" cy="335.0" r="16" fill="#0097a7" opacity=".8"/><line x1="910" y1="335" x2="1016.1" y2="418.4" stroke="#ff5a14" stroke-width="3" opacity=".42"/><circle cx="1016.1" cy="418.4" r="16" fill="#0097a7" opacity=".8"/><line x1="910" y1="335" x2="910.0" y2="453.0" stroke="#ff5a14" stroke-width="3" opacity=".42"/><circle cx="910.0" cy="453.0" r="16" fill="#0097a7" opacity=".8"/><line x1="910" y1="335" x2="803.9" y2="418.4" stroke="#ff5a14" stroke-width="3" opacity=".42"/><circle cx="803.9" cy="418.4" r="16" fill="#0097a7" opacity=".8"/><line x1="910" y1="335" x2="760.0" y2="335.0" stroke="#ff5a14" stroke-width="3" opacity=".42"/><circle cx="760.0" cy="335.0" r="16" fill="#0097a7" opacity=".8"/><line x1="910" y1="335" x2="803.9" y2="251.6" stroke="#ff5a14" stroke-width="3" opacity=".42"/><circle cx="803.9" cy="251.6" r="16" fill="#0097a7" opacity=".8"/><line x1="910" y1="335" x2="910.0" y2="217.0" stroke="#ff5a14" stroke-width="3" opacity=".42"/><circle cx="910.0" cy="217.0" r="16" fill="#0097a7" opacity=".8"/><line x1="910" y1="335" x2="1016.1" y2="251.6" stroke="#ff5a14" stroke-width="3" opacity=".42"/><circle cx="1016.1" cy="251.6" r="16" fill="#0097a7" opacity=".8"/>
  <circle cx="910" cy="335" r="58" fill="#0097a7" opacity=".86"/>
  <path d="M883 336 L904 357 L944 304" fill="none" stroke="#fffaf4" stroke-width="12" stroke-linecap="round" stroke-linejoin="round"/>

</g>
</svg>
