<?xml version="1.0" encoding="UTF-8"?>
<svg xmlns="http://www.w3.org/2000/svg" width="1200" height="675" viewBox="0 0 1200 675" role="img" aria-labelledby="title-ia_generative_passer_experimentation_impact desc-ia_generative_passer_experimentation_impact">
<title id="title-ia_generative_passer_experimentation_impact">IA générative : passer de l’expérimentation à l’impact</title>
<desc id="desc-ia_generative_passer_experimentation_impact">Visuel editorial pour IA &amp; Data.</desc>
<defs>
  <linearGradient id="bg-ia_generative_passer_experimentation_impact" x1="0" y1="0" x2="1" y2="1">
    <stop offset="0" stop-color="#f1fbff"/>
    <stop offset=".58" stop-color="#fffaf4"/>
    <stop offset="1" stop-color="#caeef5"/>
  </linearGradient>
  <filter id="shadow-ia_generative_passer_experimentation_impact" x="-20%" y="-20%" width="140%" height="140%">
    <feDropShadow dx="0" dy="24" stdDeviation="28" flood-color="#2c2014" flood-opacity=".13"/>
  </filter>
</defs>
<rect width="1200" height="675" fill="url(#bg-ia_generative_passer_experimentation_impact)"/>

  <circle cx="1060" cy="120" r="148" fill="#0097a7" opacity=".10"/>
  <circle cx="940" cy="570" r="190" fill="#caeef5" opacity=".42"/>
  <circle cx="210" cy="570" r="150" fill="#0097a7" opacity=".07"/>
  <path d="M45 515 C225 430 320 640 520 545 C705 455 805 490 1155 350" fill="none" stroke="#0097a7" stroke-width="2" opacity=".18"/>
  <path d="M70 165 C230 95 320 285 480 210 C650 132 825 152 1115 88" fill="none" stroke="#caeef5" stroke-width="2" opacity=".38"/>

<rect x="38" y="38" width="1124" height="599" rx="46" fill="#ffffff" opacity=".64" filter="url(#shadow-ia_generative_passer_experimentation_impact)"/>
<rect x="82" y="86" width="220" height="42" rx="21" fill="#0097a7" opacity=".95"/>
<text x="110" y="114" fill="#fffaf4" font-family="Inter, Arial, sans-serif" font-size="16" font-weight="900" letter-spacing="1.6">IA &amp; DATA</text>
<text x="82" y="177" fill="#0097a7" font-family="Inter, Arial, sans-serif" font-size="18" font-weight="900" letter-spacing="2">6 MIN</text>
<text x="82" y="255" fill="#10202b" font-family="Playfair Display, Georgia, serif" font-size="48" font-weight="800">IA générative : passer de</text>
<text x="82" y="308" fill="#10202b" font-family="Playfair Display, Georgia, serif" font-size="48" font-weight="800">l’expérimentation à</text>
<text x="82" y="362" fill="#10202b" font-family="Playfair Display, Georgia, serif" font-size="48" font-weight="800">l’impact</text>
<text x="86" y="505" fill="#51473e" font-family="Inter, Arial, sans-serif" font-size="22" font-weight="600">Comment transformer les usages IA en résultats</text>
<text x="86" y="534" fill="#51473e" font-family="Inter, Arial, sans-serif" font-size="22" font-weight="600">mesurables et durables pour votre...</text>
<text x="86" y="592" fill="#10202b" opacity=".72" font-family="Inter, Arial, sans-serif" font-size="15" font-weight="800">Cédrick Benittah · Transformation, IA &amp; performance</text>
<g>

  <rect x="700" y="170" width="250" height="145" rx="26" fill="#ffffff" opacity=".78"/>
  <rect x="745" y="260" width="290" height="165" rx="28" fill="#ff5a14" opacity=".56"/>
  <rect x="795" y="370" width="250" height="145" rx="26" fill="#ffffff" opacity=".86"/>
  <path d="M742 240 H890 M742 280 H840 M840 438 H990 M840 478 H940" stroke="#0097a7" stroke-width="10" stroke-linecap="round"/>
  <path d="M700 525 C820 470 930 540 1070 455" fill="none" stroke="#0097a7" stroke-width="9" stroke-linecap="round"/>
  <circle cx="1070" cy="455" r="22" fill="#0097a7"/>

</g>
</svg>
