<?xml version="1.0" encoding="UTF-8"?>
<svg xmlns="http://www.w3.org/2000/svg" width="1200" height="675" viewBox="0 0 1200 675" role="img" aria-labelledby="title-lean_management_et_scrum desc-lean_management_et_scrum">
<title id="title-lean_management_et_scrum">Lean Management et Scrum : une alliance pour maximiser l’efficacité de vos équipes</title>
<desc id="desc-lean_management_et_scrum">Visuel editorial pour Agilité.</desc>
<defs>
  <linearGradient id="bg-lean_management_et_scrum" x1="0" y1="0" x2="1" y2="1">
    <stop offset="0" stop-color="#f5fbf8"/>
    <stop offset=".58" stop-color="#fffaf4"/>
    <stop offset="1" stop-color="#d5efe6"/>
  </linearGradient>
  <filter id="shadow-lean_management_et_scrum" x="-20%" y="-20%" width="140%" height="140%">
    <feDropShadow dx="0" dy="24" stdDeviation="28" flood-color="#2c2014" flood-opacity=".13"/>
  </filter>
</defs>
<rect width="1200" height="675" fill="url(#bg-lean_management_et_scrum)"/>

  <circle cx="1060" cy="120" r="148" fill="#178a67" opacity=".10"/>
  <circle cx="940" cy="570" r="190" fill="#d5efe6" opacity=".42"/>
  <circle cx="210" cy="570" r="150" fill="#178a67" opacity=".07"/>
  <path d="M45 515 C225 430 320 640 520 545 C705 455 805 490 1155 350" fill="none" stroke="#178a67" stroke-width="2" opacity=".18"/>
  <path d="M70 165 C230 95 320 285 480 210 C650 132 825 152 1115 88" fill="none" stroke="#d5efe6" stroke-width="2" opacity=".38"/>

<rect x="38" y="38" width="1124" height="599" rx="46" fill="#ffffff" opacity=".64" filter="url(#shadow-lean_management_et_scrum)"/>
<rect x="82" y="86" width="220" height="42" rx="21" fill="#178a67" opacity=".95"/>
<text x="110" y="114" fill="#fffaf4" font-family="Inter, Arial, sans-serif" font-size="16" font-weight="900" letter-spacing="1.6">AGILITÉ</text>
<text x="82" y="177" fill="#178a67" font-family="Inter, Arial, sans-serif" font-size="18" font-weight="900" letter-spacing="2">7 MIN</text>
<text x="82" y="255" fill="#14221c" font-family="Playfair Display, Georgia, serif" font-size="42" font-weight="800">Lean Management et Scrum :</text>
<text x="82" y="302" fill="#14221c" font-family="Playfair Display, Georgia, serif" font-size="42" font-weight="800">une alliance pour</text>
<text x="82" y="349" fill="#14221c" font-family="Playfair Display, Georgia, serif" font-size="42" font-weight="800">maximiser l’efficacité de</text>
<text x="82" y="396" fill="#14221c" font-family="Playfair Display, Georgia, serif" font-size="42" font-weight="800">vos équipes</text>
<text x="86" y="505" fill="#51473e" font-family="Inter, Arial, sans-serif" font-size="22" font-weight="600">Lean et Scrum se complètent pour améliorer</text>
<text x="86" y="534" fill="#51473e" font-family="Inter, Arial, sans-serif" font-size="22" font-weight="600">l’efficacité et maximiser la valeur livrée.</text>
<text x="86" y="592" fill="#14221c" opacity=".72" font-family="Inter, Arial, sans-serif" font-size="15" font-weight="800">Cédrick Benittah · Transformation, IA &amp; performance</text>
<g>

  <path d="M830 225 C980 145 1110 250 1040 355 C970 460 785 425 760 330 C735 235 835 190 925 210" fill="none" stroke="#178a67" stroke-width="16" stroke-linecap="round"/>
  <path d="M1028 350 L1075 344 L1052 388" fill="none" stroke="#178a67" stroke-width="16" stroke-linecap="round" stroke-linejoin="round"/>
  <rect x="720" y="455" width="105" height="58" rx="16" fill="#ffffff" opacity=".82"/>
  <rect x="850" y="455" width="105" height="58" rx="16" fill="#ff5a14" opacity=".66"/>
  <rect x="980" y="455" width="105" height="58" rx="16" fill="#ffffff" opacity=".82"/>

</g>
</svg>
