<?xml version="1.0" encoding="UTF-8"?>
<svg xmlns="http://www.w3.org/2000/svg" width="1200" height="675" viewBox="0 0 1200 675" role="img" aria-labelledby="title-leviers_performance_durable desc-leviers_performance_durable">
<title id="title-leviers_performance_durable">Les 5 leviers d’une performance durable</title>
<desc id="desc-leviers_performance_durable">Visuel editorial pour Performance.</desc>
<defs>
  <linearGradient id="bg-leviers_performance_durable" x1="0" y1="0" x2="1" y2="1">
    <stop offset="0" stop-color="#f7fbf3"/>
    <stop offset=".58" stop-color="#fffaf4"/>
    <stop offset="1" stop-color="#d8ecd0"/>
  </linearGradient>
  <filter id="shadow-leviers_performance_durable" x="-20%" y="-20%" width="140%" height="140%">
    <feDropShadow dx="0" dy="24" stdDeviation="28" flood-color="#2c2014" flood-opacity=".13"/>
  </filter>
</defs>
<rect width="1200" height="675" fill="url(#bg-leviers_performance_durable)"/>

  <circle cx="1060" cy="120" r="148" fill="#3f7d4b" opacity=".10"/>
  <circle cx="940" cy="570" r="190" fill="#d8ecd0" opacity=".42"/>
  <circle cx="210" cy="570" r="150" fill="#3f7d4b" opacity=".07"/>
  <path d="M45 515 C225 430 320 640 520 545 C705 455 805 490 1155 350" fill="none" stroke="#3f7d4b" stroke-width="2" opacity=".18"/>
  <path d="M70 165 C230 95 320 285 480 210 C650 132 825 152 1115 88" fill="none" stroke="#d8ecd0" stroke-width="2" opacity=".38"/>

<rect x="38" y="38" width="1124" height="599" rx="46" fill="#ffffff" opacity=".64" filter="url(#shadow-leviers_performance_durable)"/>
<rect x="82" y="86" width="230" height="42" rx="21" fill="#3f7d4b" opacity=".95"/>
<text x="110" y="114" fill="#fffaf4" font-family="Inter, Arial, sans-serif" font-size="16" font-weight="900" letter-spacing="1.6">PERFORMANCE</text>
<text x="82" y="177" fill="#3f7d4b" font-family="Inter, Arial, sans-serif" font-size="18" font-weight="900" letter-spacing="2">6 MIN</text>
<text x="82" y="255" fill="#172015" font-family="Playfair Display, Georgia, serif" font-size="48" font-weight="800">Les 5 leviers d’une</text>
<text x="82" y="308" fill="#172015" font-family="Playfair Display, Georgia, serif" font-size="48" font-weight="800">performance durable</text>
<text x="86" y="505" fill="#51473e" font-family="Inter, Arial, sans-serif" font-size="22" font-weight="600">Focaliser vos efforts sur ce qui compte</text>
<text x="86" y="534" fill="#51473e" font-family="Inter, Arial, sans-serif" font-size="22" font-weight="600">vraiment pour créer de l’impact mesurable.</text>
<text x="86" y="592" fill="#172015" opacity=".72" font-family="Inter, Arial, sans-serif" font-size="15" font-weight="800">Cédrick Benittah · Transformation, IA &amp; performance</text>
<g>
<line x1="710" y1="190" x2="1060" y2="190" stroke="#ff5a14" stroke-width="18" stroke-linecap="round" opacity=".58"/>
<circle cx="760" cy="190" r="34" fill="#3f7d4b" opacity=".86"/>
<line x1="710" y1="275" x2="1060" y2="275" stroke="#ff5a14" stroke-width="18" stroke-linecap="round" opacity=".58"/>
<circle cx="840" cy="275" r="34" fill="#3f7d4b" opacity=".86"/>
<line x1="710" y1="360" x2="1060" y2="360" stroke="#ff5a14" stroke-width="18" stroke-linecap="round" opacity=".58"/>
<circle cx="920" cy="360" r="34" fill="#3f7d4b" opacity=".86"/>
<line x1="710" y1="445" x2="1060" y2="445" stroke="#ff5a14" stroke-width="18" stroke-linecap="round" opacity=".58"/>
<circle cx="1000" cy="445" r="34" fill="#3f7d4b" opacity=".86"/>
<path d="M725 545 A185 185 0 0 1 1080 545" fill="none" stroke="#3f7d4b" stroke-width="12" stroke-linecap="round" opacity=".72"/>
</g>
</svg>
