<?xml version="1.0" encoding="UTF-8"?>
<svg xmlns="http://www.w3.org/2000/svg" width="1200" height="675" viewBox="0 0 1200 675" role="img" aria-labelledby="title-parole_sport_combat desc-parole_sport_combat">
<title id="title-parole_sport_combat">La parole est un sport de combat</title>
<desc id="desc-parole_sport_combat">Visuel editorial pour Lecture.</desc>
<defs>
  <linearGradient id="bg-parole_sport_combat" x1="0" y1="0" x2="1" y2="1">
    <stop offset="0" stop-color="#fff8ee"/>
    <stop offset=".58" stop-color="#fffaf4"/>
    <stop offset="1" stop-color="#f3dfc3"/>
  </linearGradient>
  <filter id="shadow-parole_sport_combat" x="-20%" y="-20%" width="140%" height="140%">
    <feDropShadow dx="0" dy="24" stdDeviation="28" flood-color="#2c2014" flood-opacity=".13"/>
  </filter>
</defs>
<rect width="1200" height="675" fill="url(#bg-parole_sport_combat)"/>

  <circle cx="1060" cy="120" r="148" fill="#a66a2c" opacity=".10"/>
  <circle cx="940" cy="570" r="190" fill="#f3dfc3" opacity=".42"/>
  <circle cx="210" cy="570" r="150" fill="#a66a2c" opacity=".07"/>
  <path d="M45 515 C225 430 320 640 520 545 C705 455 805 490 1155 350" fill="none" stroke="#a66a2c" stroke-width="2" opacity=".18"/>
  <path d="M70 165 C230 95 320 285 480 210 C650 132 825 152 1115 88" fill="none" stroke="#f3dfc3" stroke-width="2" opacity=".38"/>

<rect x="38" y="38" width="1124" height="599" rx="46" fill="#ffffff" opacity=".64" filter="url(#shadow-parole_sport_combat)"/>
<rect x="82" y="86" width="220" height="42" rx="21" fill="#a66a2c" opacity=".95"/>
<text x="110" y="114" fill="#fffaf4" font-family="Inter, Arial, sans-serif" font-size="16" font-weight="900" letter-spacing="1.6">LECTURE</text>
<text x="82" y="177" fill="#a66a2c" font-family="Inter, Arial, sans-serif" font-size="18" font-weight="900" letter-spacing="2">5 MIN</text>
<text x="82" y="255" fill="#201812" font-family="Playfair Display, Georgia, serif" font-size="48" font-weight="800">La parole est un sport de</text>
<text x="82" y="308" fill="#201812" font-family="Playfair Display, Georgia, serif" font-size="48" font-weight="800">combat</text>
<text x="86" y="505" fill="#51473e" font-family="Inter, Arial, sans-serif" font-size="22" font-weight="600">Une réflexion forte sur l’oralité, la prise de</text>
<text x="86" y="534" fill="#51473e" font-family="Inter, Arial, sans-serif" font-size="22" font-weight="600">parole et l’engagement public.</text>
<text x="86" y="592" fill="#201812" opacity=".72" font-family="Inter, Arial, sans-serif" font-size="15" font-weight="800">Cédrick Benittah · Transformation, IA &amp; performance</text>
<g>

  <rect x="730" y="165" width="260" height="360" rx="28" fill="#ffffff" opacity=".82"/>
  <path d="M768 180 H990 V525 H768 C728 500 710 475 710 440 V225 C710 197 730 180 768 180 Z" fill="#ff5a14" opacity=".48"/>
  <path d="M768 180 V525" stroke="#a66a2c" stroke-width="8" opacity=".72"/>
  <path d="M805 465 H955 M805 500 H925" stroke="#a66a2c" stroke-width="8" stroke-linecap="round" opacity=".58"/>
  <path d="M795 270 Q910 185 1025 270 V395 Q910 335 795 395 Z" fill="#ff5a14" opacity=".66"/><circle cx="910" cy="300" r="22" fill="#a66a2c"/>

</g>
</svg>
