<?xml version="1.0" encoding="UTF-8"?>
<svg xmlns="http://www.w3.org/2000/svg" width="1200" height="675" viewBox="0 0 1200 675" role="img" aria-labelledby="title-plonger_profondeurs_leadership desc-plonger_profondeurs_leadership">
<title id="title-plonger_profondeurs_leadership">Plonger dans les profondeurs du leadership</title>
<desc id="desc-plonger_profondeurs_leadership">Visuel editorial pour Leadership.</desc>
<defs>
  <linearGradient id="bg-plonger_profondeurs_leadership" x1="0" y1="0" x2="1" y2="1">
    <stop offset="0" stop-color="#f3f8fb"/>
    <stop offset=".58" stop-color="#fffaf4"/>
    <stop offset="1" stop-color="#d8ebf4"/>
  </linearGradient>
  <filter id="shadow-plonger_profondeurs_leadership" x="-20%" y="-20%" width="140%" height="140%">
    <feDropShadow dx="0" dy="24" stdDeviation="28" flood-color="#2c2014" flood-opacity=".13"/>
  </filter>
</defs>
<rect width="1200" height="675" fill="url(#bg-plonger_profondeurs_leadership)"/>

  <circle cx="1060" cy="120" r="148" fill="#1f6f8b" opacity=".10"/>
  <circle cx="940" cy="570" r="190" fill="#d8ebf4" opacity=".42"/>
  <circle cx="210" cy="570" r="150" fill="#1f6f8b" opacity=".07"/>
  <path d="M45 515 C225 430 320 640 520 545 C705 455 805 490 1155 350" fill="none" stroke="#1f6f8b" stroke-width="2" opacity=".18"/>
  <path d="M70 165 C230 95 320 285 480 210 C650 132 825 152 1115 88" fill="none" stroke="#d8ebf4" stroke-width="2" opacity=".38"/>

<rect x="38" y="38" width="1124" height="599" rx="46" fill="#ffffff" opacity=".64" filter="url(#shadow-plonger_profondeurs_leadership)"/>
<rect x="82" y="86" width="220" height="42" rx="21" fill="#1f6f8b" opacity=".95"/>
<text x="110" y="114" fill="#fffaf4" font-family="Inter, Arial, sans-serif" font-size="16" font-weight="900" letter-spacing="1.6">LEADERSHIP</text>
<text x="82" y="177" fill="#1f6f8b" font-family="Inter, Arial, sans-serif" font-size="18" font-weight="900" letter-spacing="2">7 MIN</text>
<text x="82" y="255" fill="#101d25" font-family="Playfair Display, Georgia, serif" font-size="48" font-weight="800">Plonger dans les</text>
<text x="82" y="308" fill="#101d25" font-family="Playfair Display, Georgia, serif" font-size="48" font-weight="800">profondeurs du leadership</text>
<text x="86" y="505" fill="#51473e" font-family="Inter, Arial, sans-serif" font-size="22" font-weight="600">Ce que le coaching agile et le guidage de</text>
<text x="86" y="534" fill="#51473e" font-family="Inter, Arial, sans-serif" font-size="22" font-weight="600">palanquée ont en commun : accompagner sans...</text>
<text x="86" y="592" fill="#101d25" opacity=".72" font-family="Inter, Arial, sans-serif" font-size="15" font-weight="800">Cédrick Benittah · Transformation, IA &amp; performance</text>
<g>

  <path d="M690 470 C770 410 850 526 930 462 S1060 405 1110 455" fill="none" stroke="#1f6f8b" stroke-width="11" stroke-linecap="round"/>
  <path d="M700 365 C790 315 850 420 940 365 S1065 310 1110 345" fill="none" stroke="#c99a5b" stroke-width="8" stroke-linecap="round" opacity=".82"/>
  <path d="M725 255 C800 212 880 292 950 245 S1050 220 1100 260" fill="none" stroke="#1f6f8b" stroke-width="5" stroke-linecap="round" opacity=".55"/>
  <circle cx="890" cy="340" r="70" fill="#ffffff" opacity=".62"/>
  <path d="M854 340 H926 M890 304 V376" stroke="#1f6f8b" stroke-width="8" stroke-linecap="round"/>

</g>
</svg>
