<?xml version="1.0" encoding="UTF-8"?>
<svg xmlns="http://www.w3.org/2000/svg" width="1200" height="675" viewBox="0 0 1200 675" role="img" aria-labelledby="title-pourquoi_coach_agile_organisation_agile desc-pourquoi_coach_agile_organisation_agile">
<title id="title-pourquoi_coach_agile_organisation_agile">Pourquoi un Coach Agile est Essentiel dans une Organisation Agile</title>
<desc id="desc-pourquoi_coach_agile_organisation_agile">Visuel editorial pour Coaching agile.</desc>
<defs>
  <linearGradient id="bg-pourquoi_coach_agile_organisation_agile" x1="0" y1="0" x2="1" y2="1">
    <stop offset="0" stop-color="#f6f4ff"/>
    <stop offset=".58" stop-color="#fffaf4"/>
    <stop offset="1" stop-color="#dedbff"/>
  </linearGradient>
  <filter id="shadow-pourquoi_coach_agile_organisation_agile" x="-20%" y="-20%" width="140%" height="140%">
    <feDropShadow dx="0" dy="24" stdDeviation="28" flood-color="#2c2014" flood-opacity=".13"/>
  </filter>
</defs>
<rect width="1200" height="675" fill="url(#bg-pourquoi_coach_agile_organisation_agile)"/>

  <circle cx="1060" cy="120" r="148" fill="#5b5bd6" opacity=".10"/>
  <circle cx="940" cy="570" r="190" fill="#dedbff" opacity=".42"/>
  <circle cx="210" cy="570" r="150" fill="#5b5bd6" opacity=".07"/>
  <path d="M45 515 C225 430 320 640 520 545 C705 455 805 490 1155 350" fill="none" stroke="#5b5bd6" stroke-width="2" opacity=".18"/>
  <path d="M70 165 C230 95 320 285 480 210 C650 132 825 152 1115 88" fill="none" stroke="#dedbff" stroke-width="2" opacity=".38"/>

<rect x="38" y="38" width="1124" height="599" rx="46" fill="#ffffff" opacity=".64" filter="url(#shadow-pourquoi_coach_agile_organisation_agile)"/>
<rect x="82" y="86" width="272" height="42" rx="21" fill="#5b5bd6" opacity=".95"/>
<text x="110" y="114" fill="#fffaf4" font-family="Inter, Arial, sans-serif" font-size="16" font-weight="900" letter-spacing="1.6">COACHING AGILE</text>
<text x="82" y="177" fill="#5b5bd6" font-family="Inter, Arial, sans-serif" font-size="18" font-weight="900" letter-spacing="2">8 MIN</text>
<text x="82" y="255" fill="#171728" font-family="Playfair Display, Georgia, serif" font-size="48" font-weight="800">Pourquoi un Coach Agile</text>
<text x="82" y="308" fill="#171728" font-family="Playfair Display, Georgia, serif" font-size="48" font-weight="800">est Essentiel dans une</text>
<text x="82" y="362" fill="#171728" font-family="Playfair Display, Georgia, serif" font-size="48" font-weight="800">Organisation Agile</text>
<text x="86" y="505" fill="#51473e" font-family="Inter, Arial, sans-serif" font-size="22" font-weight="600">Pourquoi avoir un coach agile dans une</text>
<text x="86" y="534" fill="#51473e" font-family="Inter, Arial, sans-serif" font-size="22" font-weight="600">organisation agile fait toute la différence.</text>
<text x="86" y="592" fill="#171728" opacity=".72" font-family="Inter, Arial, sans-serif" font-size="15" font-weight="800">Cédrick Benittah · Transformation, IA &amp; performance</text>
<g>
<line x1="885" y1="320" x2="780" y2="245" stroke="#ff5a14" stroke-width="6" opacity=".48"/><line x1="885" y1="320" x2="1000" y2="245" stroke="#ff5a14" stroke-width="6" opacity=".48"/><line x1="885" y1="320" x2="775" y2="430" stroke="#ff5a14" stroke-width="6" opacity=".48"/><line x1="885" y1="320" x2="1005" y2="430" stroke="#ff5a14" stroke-width="6" opacity=".48"/><circle cx="885" cy="320" r="42" fill="#5b5bd6" stroke="#5b5bd6" stroke-width="6" opacity=".9"/><circle cx="780" cy="245" r="34" fill="#ffffff" stroke="#5b5bd6" stroke-width="6" opacity=".9"/><circle cx="1000" cy="245" r="34" fill="#ffffff" stroke="#5b5bd6" stroke-width="6" opacity=".9"/><circle cx="775" cy="430" r="34" fill="#ffffff" stroke="#5b5bd6" stroke-width="6" opacity=".9"/><circle cx="1005" cy="430" r="34" fill="#ffffff" stroke="#5b5bd6" stroke-width="6" opacity=".9"/>
</g>
</svg>
