<?xml version="1.0" encoding="UTF-8"?>
<svg xmlns="http://www.w3.org/2000/svg" width="1200" height="675" viewBox="0 0 1200 675" role="img" aria-labelledby="title-quotidien_scrum_master desc-quotidien_scrum_master">
<title id="title-quotidien_scrum_master">Le quotidien d’un Scrum Master</title>
<desc id="desc-quotidien_scrum_master">Visuel editorial pour Coaching agile.</desc>
<defs>
  <linearGradient id="bg-quotidien_scrum_master" x1="0" y1="0" x2="1" y2="1">
    <stop offset="0" stop-color="#f6f4ff"/>
    <stop offset=".58" stop-color="#fffaf4"/>
    <stop offset="1" stop-color="#dedbff"/>
  </linearGradient>
  <filter id="shadow-quotidien_scrum_master" x="-20%" y="-20%" width="140%" height="140%">
    <feDropShadow dx="0" dy="24" stdDeviation="28" flood-color="#2c2014" flood-opacity=".13"/>
  </filter>
</defs>
<rect width="1200" height="675" fill="url(#bg-quotidien_scrum_master)"/>

  <circle cx="1060" cy="120" r="148" fill="#5b5bd6" opacity=".10"/>
  <circle cx="940" cy="570" r="190" fill="#dedbff" opacity=".42"/>
  <circle cx="210" cy="570" r="150" fill="#5b5bd6" opacity=".07"/>
  <path d="M45 515 C225 430 320 640 520 545 C705 455 805 490 1155 350" fill="none" stroke="#5b5bd6" stroke-width="2" opacity=".18"/>
  <path d="M70 165 C230 95 320 285 480 210 C650 132 825 152 1115 88" fill="none" stroke="#dedbff" stroke-width="2" opacity=".38"/>

<rect x="38" y="38" width="1124" height="599" rx="46" fill="#ffffff" opacity=".64" filter="url(#shadow-quotidien_scrum_master)"/>
<rect x="82" y="86" width="272" height="42" rx="21" fill="#5b5bd6" opacity=".95"/>
<text x="110" y="114" fill="#fffaf4" font-family="Inter, Arial, sans-serif" font-size="16" font-weight="900" letter-spacing="1.6">COACHING AGILE</text>
<text x="82" y="177" fill="#5b5bd6" font-family="Inter, Arial, sans-serif" font-size="18" font-weight="900" letter-spacing="2">7 MIN</text>
<text x="82" y="255" fill="#171728" font-family="Playfair Display, Georgia, serif" font-size="48" font-weight="800">Le quotidien d’un Scrum</text>
<text x="82" y="308" fill="#171728" font-family="Playfair Display, Georgia, serif" font-size="48" font-weight="800">Master</text>
<text x="86" y="505" fill="#51473e" font-family="Inter, Arial, sans-serif" font-size="22" font-weight="600">Le quotidien d’un Scrum Master : bien plus que</text>
<text x="86" y="534" fill="#51473e" font-family="Inter, Arial, sans-serif" font-size="22" font-weight="600">des stand-ups et du Jira.</text>
<text x="86" y="592" fill="#171728" opacity=".72" font-family="Inter, Arial, sans-serif" font-size="15" font-weight="800">Cédrick Benittah · Transformation, IA &amp; performance</text>
<g>
<rect x="700" y="175" width="108" height="345" rx="22" fill="#ffffff" opacity=".72"/>
<rect x="718" y="235" width="72" height="44" rx="12" fill="#ff5a14" opacity=".72"/>
<rect x="718" y="317" width="72" height="44" rx="12" fill="#5b5bd6" opacity=".72"/>
<rect x="718" y="399" width="72" height="44" rx="12" fill="#ff5a14" opacity=".72"/>
<rect x="835" y="175" width="108" height="345" rx="22" fill="#ffffff" opacity=".72"/>
<rect x="853" y="247" width="72" height="44" rx="12" fill="#5b5bd6" opacity=".72"/>
<rect x="853" y="329" width="72" height="44" rx="12" fill="#ff5a14" opacity=".72"/>
<rect x="853" y="411" width="72" height="44" rx="12" fill="#5b5bd6" opacity=".72"/>
<rect x="970" y="175" width="108" height="345" rx="22" fill="#ffffff" opacity=".72"/>
<rect x="988" y="235" width="72" height="44" rx="12" fill="#ff5a14" opacity=".72"/>
<rect x="988" y="317" width="72" height="44" rx="12" fill="#5b5bd6" opacity=".72"/>
<rect x="988" y="399" width="72" height="44" rx="12" fill="#ff5a14" opacity=".72"/>
</g>
</svg>
