<?xml version="1.0" encoding="UTF-8"?>
<svg xmlns="http://www.w3.org/2000/svg" width="1200" height="675" viewBox="0 0 1200 675" role="img" aria-labelledby="title-seo_strategique_attirer_bon_trafic desc-seo_strategique_attirer_bon_trafic">
<title id="title-seo_strategique_attirer_bon_trafic">SEO stratégique : attirer le bon trafic</title>
<desc id="desc-seo_strategique_attirer_bon_trafic">Visuel editorial pour SEO &amp; stratégie.</desc>
<defs>
  <linearGradient id="bg-seo_strategique_attirer_bon_trafic" x1="0" y1="0" x2="1" y2="1">
    <stop offset="0" stop-color="#f4f8ff"/>
    <stop offset=".58" stop-color="#fffaf4"/>
    <stop offset="1" stop-color="#dce8ff"/>
  </linearGradient>
  <filter id="shadow-seo_strategique_attirer_bon_trafic" x="-20%" y="-20%" width="140%" height="140%">
    <feDropShadow dx="0" dy="24" stdDeviation="28" flood-color="#2c2014" flood-opacity=".13"/>
  </filter>
</defs>
<rect width="1200" height="675" fill="url(#bg-seo_strategique_attirer_bon_trafic)"/>

  <circle cx="1060" cy="120" r="148" fill="#2e6bd9" opacity=".10"/>
  <circle cx="940" cy="570" r="190" fill="#dce8ff" opacity=".42"/>
  <circle cx="210" cy="570" r="150" fill="#2e6bd9" opacity=".07"/>
  <path d="M45 515 C225 430 320 640 520 545 C705 455 805 490 1155 350" fill="none" stroke="#2e6bd9" stroke-width="2" opacity=".18"/>
  <path d="M70 165 C230 95 320 285 480 210 C650 132 825 152 1115 88" fill="none" stroke="#dce8ff" stroke-width="2" opacity=".38"/>

<rect x="38" y="38" width="1124" height="599" rx="46" fill="#ffffff" opacity=".64" filter="url(#shadow-seo_strategique_attirer_bon_trafic)"/>
<rect x="82" y="86" width="286" height="42" rx="21" fill="#2e6bd9" opacity=".95"/>
<text x="110" y="114" fill="#fffaf4" font-family="Inter, Arial, sans-serif" font-size="16" font-weight="900" letter-spacing="1.6">SEO &amp; STRATÉGIE</text>
<text x="82" y="177" fill="#2e6bd9" font-family="Inter, Arial, sans-serif" font-size="18" font-weight="900" letter-spacing="2">6 MIN</text>
<text x="82" y="255" fill="#121c2a" font-family="Playfair Display, Georgia, serif" font-size="48" font-weight="800">SEO stratégique : attirer</text>
<text x="82" y="308" fill="#121c2a" font-family="Playfair Display, Georgia, serif" font-size="48" font-weight="800">le bon trafic</text>
<text x="86" y="505" fill="#51473e" font-family="Inter, Arial, sans-serif" font-size="22" font-weight="600">Aligner contenu, intention de recherche et</text>
<text x="86" y="534" fill="#51473e" font-family="Inter, Arial, sans-serif" font-size="22" font-weight="600">performance pour une croissance pérenne.</text>
<text x="86" y="592" fill="#121c2a" opacity=".72" font-family="Inter, Arial, sans-serif" font-size="15" font-weight="800">Cédrick Benittah · Transformation, IA &amp; performance</text>
<g>

  <circle cx="845" cy="295" r="92" fill="#ffffff" opacity=".78" stroke="#2e6bd9" stroke-width="13"/>
  <path d="M910 360 L1015 465" stroke="#2e6bd9" stroke-width="18" stroke-linecap="round"/>
  <rect x="955" y="205" width="42" height="220" rx="15" fill="#c99a5b" opacity=".65"/>
  <rect x="1025" y="285" width="42" height="140" rx="15" fill="#2e6bd9" opacity=".72"/>
  <rect x="1095" y="245" width="42" height="180" rx="15" fill="#c99a5b" opacity=".55"/>

</g>
</svg>
