<?xml version="1.0" encoding="UTF-8"?>
<svg xmlns="http://www.w3.org/2000/svg" width="1200" height="675" viewBox="0 0 1200 675" role="img" aria-labelledby="title-transformation_5_leviers_valeur desc-transformation_5_leviers_valeur">
<title id="title-transformation_5_leviers_valeur">Transformation : les 5 leviers qui créent vraiment de la valeur</title>
<desc id="desc-transformation_5_leviers_valeur">Visuel editorial pour Transformation.</desc>
<defs>
  <linearGradient id="bg-transformation_5_leviers_valeur" x1="0" y1="0" x2="1" y2="1">
    <stop offset="0" stop-color="#fff6ed"/>
    <stop offset=".58" stop-color="#fffaf4"/>
    <stop offset="1" stop-color="#f6dac1"/>
  </linearGradient>
  <filter id="shadow-transformation_5_leviers_valeur" x="-20%" y="-20%" width="140%" height="140%">
    <feDropShadow dx="0" dy="24" stdDeviation="28" flood-color="#2c2014" flood-opacity=".13"/>
  </filter>
</defs>
<rect width="1200" height="675" fill="url(#bg-transformation_5_leviers_valeur)"/>

  <circle cx="1060" cy="120" r="148" fill="#ff5a14" opacity=".10"/>
  <circle cx="940" cy="570" r="190" fill="#f6dac1" opacity=".42"/>
  <circle cx="210" cy="570" r="150" fill="#ff5a14" opacity=".07"/>
  <path d="M45 515 C225 430 320 640 520 545 C705 455 805 490 1155 350" fill="none" stroke="#ff5a14" stroke-width="2" opacity=".18"/>
  <path d="M70 165 C230 95 320 285 480 210 C650 132 825 152 1115 88" fill="none" stroke="#f6dac1" stroke-width="2" opacity=".38"/>

<rect x="38" y="38" width="1124" height="599" rx="46" fill="#ffffff" opacity=".64" filter="url(#shadow-transformation_5_leviers_valeur)"/>
<rect x="82" y="86" width="272" height="42" rx="21" fill="#ff5a14" opacity=".95"/>
<text x="110" y="114" fill="#fffaf4" font-family="Inter, Arial, sans-serif" font-size="16" font-weight="900" letter-spacing="1.6">TRANSFORMATION</text>
<text x="82" y="177" fill="#ff5a14" font-family="Inter, Arial, sans-serif" font-size="18" font-weight="900" letter-spacing="2">6 MIN</text>
<text x="82" y="255" fill="#221815" font-family="Playfair Display, Georgia, serif" font-size="48" font-weight="800">Transformation : les 5</text>
<text x="82" y="308" fill="#221815" font-family="Playfair Display, Georgia, serif" font-size="48" font-weight="800">leviers qui créent</text>
<text x="82" y="362" fill="#221815" font-family="Playfair Display, Georgia, serif" font-size="48" font-weight="800">vraiment de la valeur</text>
<text x="86" y="505" fill="#51473e" font-family="Inter, Arial, sans-serif" font-size="22" font-weight="600">Aligner vision, organisation et exécution pour</text>
<text x="86" y="534" fill="#51473e" font-family="Inter, Arial, sans-serif" font-size="22" font-weight="600">des résultats durables.</text>
<text x="86" y="592" fill="#221815" opacity=".72" font-family="Inter, Arial, sans-serif" font-size="15" font-weight="800">Cédrick Benittah · Transformation, IA &amp; performance</text>
<g>
<rect x="705" y="260" width="46" height="190" rx="18" fill="#c99a5b" opacity="0.52"/>
<circle cx="728" cy="230" r="18" fill="#ff5a14" opacity=".75"/>
<rect x="777" y="210" width="46" height="240" rx="18" fill="#ff5a14" opacity="0.72"/>
<circle cx="800" cy="180" r="18" fill="#ff5a14" opacity=".75"/>
<rect x="849" y="300" width="46" height="150" rx="18" fill="#c99a5b" opacity="0.52"/>
<circle cx="872" cy="270" r="18" fill="#ff5a14" opacity=".75"/>
<rect x="921" y="170" width="46" height="280" rx="18" fill="#ff5a14" opacity="0.72"/>
<circle cx="944" cy="140" r="18" fill="#ff5a14" opacity=".75"/>
<rect x="993" y="235" width="46" height="215" rx="18" fill="#c99a5b" opacity="0.52"/>
<circle cx="1016" cy="205" r="18" fill="#ff5a14" opacity=".75"/>
<path d="M728 420 L800 360 L872 405 L944 290 L1016 345" fill="none" stroke="#ff5a14" stroke-width="7" stroke-linecap="round" stroke-linejoin="round"/>
</g>
</svg>
