<svg viewBox="0 0 142 93" xmlns="http://www.w3.org/2000/svg" xml:space="preserve" style="fill-rule:evenodd;clip-rule:evenodd;stroke-linejoin:round;stroke-miterlimit:2"><path d="m0 23.472-.341.08C1.071 19.459 6.268 4.377 6.232 4.306L1.853-9.41s-2.245-2.42-11.19-.128c-8.879 2.278-16.475 7.265-16.475 7.265s-.703.426-1.802 1.145l-1.199-1.09s-2.436 1.207-5.024 3.111c-1.66 1.223-2.712 2.454-3.013 2.825-.222.137-.34.213-.34.213l-5.821 7.797-1.299 9.826 3.676-3.086-.44 4.29s-2.573 11.897.938 12.313c.431.051.916.096 1.455.129l-.005.01s1.604.092 2.759.072c1.155-.021 2.402-.093 2.402-.093l.001-.016c3.68-.226 8.393-.908 13.971-2.448 4.615-1.274 9.013-3.126 12.4-4.743l.02.053s.907-.366 3.444-1.736c2.514-1.357 3.25-1.871 4.026-2.334.777-.462-.337-.493-.337-.493" style="fill:#fff;fill-rule:nonzero" transform="matrix(2 0 0 2 108.417 21.98)"/><path d="M0 27.216c-4.721-.137-8.364-1.625-10.144-4.56-2.973-4.904-.004-12.606 6.881-20.049.241-1.71 1.069-3.285 2.248-4.757-12.326 7.442-19.452 17.023-16.784 23.977 1.759 4.584 7.433 7.137 15.134 7.539A27.454 27.454 0 0 0 0 27.216" style="fill:#0059a3;fill-rule:nonzero" transform="matrix(2 0 0 2 36.713 33.695)"/><path d="M-6.775-10.186C-6.799-5.998-6.39-2.12-5.6 1.251a30.834 30.834 0 0 0-1.175 3.742C-8.188.741-9.202-4.167-9.696-9.477a59.835 59.835 0 0 0 2.921-.709" style="fill:#0059a3;fill-rule:nonzero" transform="scale(-2 2) rotate(-68.44 16.616 35.735)"/><path d="M0-8.287a70.204 70.204 0 0 1-7.341 4.304c-.151 1.529-.337 2.88-.55 3.983A80.652 80.652 0 0 0 .327-3.423 104.544 104.544 0 0 1 0-8.287" style="fill:#0059a3;fill-rule:nonzero" transform="matrix(2 0 0 2 94.492 84.443)"/><path d="M-5.754-21.747c1.91-.901 4.086-1.03 6.407-.483C-4.563-18.872-6.97-9.06-5.754 2.777a101.975 101.975 0 0 0-4.332 4.849c-3.913-14.091-2.475-26.158 4.332-29.373" style="fill:#0059a3;fill-rule:nonzero" transform="scale(-2 2) rotate(-43.739 3.453 75.387)"/><path d="M0 6.339c3.28-.813 6.461-1.362 9.462-1.65v-.132l3.61-2.171v2.08c5.87-.153 10.849.794 14.253 2.799a7.681 7.681 0 0 0-.905-2.218C22.897-.769 12.078-.926 0 3.913v2.426Z" style="fill:#bcd4f0;fill-rule:nonzero" transform="matrix(2 0 0 2 77.47 -.94)"/><path d="M0-4.911A69.73 69.73 0 0 0-6.591-1.34c-.667.409-1.316.829-1.957 1.253l.101.087a82.622 82.622 0 0 1 2.548-1.045A80.583 80.583 0 0 1 0-3.075v-1.836Z" style="fill:#bcd4f0;fill-rule:nonzero" transform="matrix(2 0 0 2 70.252 19.872)"/><path d="M-4.256-9.111c4.364-.392 6.942-1.863 8.374-3.974C4.217-2.946 1.241 4.752-4.256 6.387c-3.29.979-6.987-.367-10.577-3.438-.701-7.982 3.406-11.416 10.577-12.06" style="fill:#89b4e1;fill-rule:nonzero" transform="scale(-2 2) rotate(-42.212 36.664 28.07)"/><path d="M0-33.978c-3.404-2.005-8.382-2.952-14.253-2.799v4.283l-3.609 2.171v-6.231c-3.002.288-6.183.836-9.463 1.65v2.41l-3.609 2.171v-3.589a80.112 80.112 0 0 0-5.899 2.03c-.864.336-1.711.687-2.548 1.045l1.158.999c-5.935 3.404-9.469 7.637-2.55 14.877 5.717 5.983 4.269 12.411-1.668 17.913 3.426-.505 7.183-1.549 11.069-3.11-.973-8.459-.838-20.35.438-26.103l3.609-2.171c1.812 7.259 1.893 18.588 1.17 25.898a70.81 70.81 0 0 0 4.929-2.755 72.729 72.729 0 0 0 2.412-1.549c-.324-7.227-.012-15.077.952-19.423l3.609-2.171c1.169 4.681 1.616 11.055 1.594 16.952C-3.598-19.193 1.447-27.946 0-33.978" style="fill:#89b4e1;fill-rule:nonzero" transform="matrix(2 0 0 2 132.12 81.546)"/></svg>