<?xml version="1.0" encoding="UTF-8"?><svg id="Wemanity_Reply" xmlns="http://www.w3.org/2000/svg" viewBox="0 0 613.99 190.97"><g id="RUNNING_MAN"><path d="M146.99,0c-9.06,0-16.39,7.35-16.39,16.42s7.32,16.38,16.39,16.38,16.39-7.33,16.39-16.38S156.04,0,146.99,0Z" fill="#049eb7"/><path d="M111.04,68.96l20.47-26.95c1.05-1.38,1.13-3.26.22-4.73l-8.7-13.95c-.77-1.23-2.12-1.97-3.57-1.96l-37.53.26h0l-20.58-.02c-1.61,0-2.33,2.02-1.07,3.04l5.77,4.65c.81.65,1.77,1.1,2.8,1.29l35.74,6.73-44.22,47.52L2.17,93.11c-2.02.29-2.88,2.72-1.49,4.21l5.68,6.1c1.12,1.21,2.71,1.88,4.36,1.85l56.18-.92c2.08-.03,4.11-.62,5.89-1.71l13.46-8.2,28.41,22.55c1.12.89,1.85,2.17,2.04,3.59l5.41,39.82c.25,1.88,1.86,3.28,3.75,3.28h2.89c2.09,0,3.78-1.69,3.79-3.77l.17-44.19c0-2.28-.72-4.5-2.08-6.33l-24.79-33.41,5.18-7.01h.02Z" fill="#049eb7"/></g><path d="M252.49,125.32l-19.37-35.04h-15.38v35.04h-21V26.7h46.13c20.55,0,33.27,13.45,33.27,31.79,0,17.3-11.09,26.76-21.73,29.28l22.33,37.56h-24.25,0ZM254.56,58.34c0-8.13-6.36-13.16-14.64-13.16h-22.18v26.61h22.18c8.28,0,14.64-5.03,14.64-13.45Z" fill="#004149"/><path d="M291.81,125.32V26.7h69.79v18.48h-48.79v20.7h47.76v18.48h-47.76v22.47h48.79v18.48h-69.79Z" fill="#004149"/><path d="M378.01,125.32V26.7h46.13c21.44,0,33.12,14.49,33.12,31.79s-11.83,31.64-33.12,31.64h-25.14v35.19h-20.99ZM435.82,58.49c0-8.28-6.36-13.31-14.64-13.31h-22.18v26.47h22.18c8.28,0,14.64-5.03,14.64-13.16Z" fill="#004149"/><path d="M469.53,125.32V26.7h21.14v80.14h41.7v18.48h-62.84Z" fill="#004149"/><path d="M555.28,125.32v-40.36l-37.85-58.26h23.95l24.4,39.48,24.4-39.48h23.81l-37.7,58.26v40.36h-21.01Z" fill="#004149"/><path d="M232.1,190.97l-7.95-30.37-8.01,30.37h-7.7l-11.7-41.09h8.01l8.01,31.6,8.5-31.6h5.73l8.5,31.6,8.01-31.6h8.07l-11.77,41.09h-7.7Z" fill="#049eb7"/><path d="M255.65,190.97v-41.09h28.15v6.34h-20.94v10.6h20.51v6.34h-20.51v11.46h20.94v6.34h-28.15Z" fill="#049eb7"/><path d="M326.62,190.97v-31.72l-12.57,31.72h-3.08l-12.63-31.72v31.72h-7.21v-41.09h10.16l11.21,28.21,11.15-28.21h10.16v41.09h-7.21.02Z" fill="#049eb7"/><path d="M370.84,190.97l-3.02-7.95h-18.85l-3.02,7.95h-8.19l16.14-41.09h8.99l16.14,41.09h-8.19ZM358.4,157.09l-7.39,19.59h14.78l-7.39-19.59h0Z" fill="#049eb7"/><path d="M411.56,190.97l-21.44-29.38v29.38h-7.21v-41.09h7.39l21.01,28.46v-28.46h7.21v41.09h-6.96Z" fill="#049eb7"/><path d="M426.98,190.97v-41.09h7.21v41.09h-7.21Z" fill="#049eb7"/><path d="M451.17,190.97v-34.74h-12.44v-6.34h32.09v6.34h-12.44v34.74h-7.21Z" fill="#049eb7"/><path d="M489.43,190.97v-17.06l-15.95-24.02h8.25l11.27,17.56,11.27-17.56h8.26l-15.89,24.02v17.06h-7.21Z" fill="#049eb7"/></svg>